<svg xmlns="http://www.w3.org/2000/svg" xmlns:xlink="http://www.w3.org/1999/xlink" zoomAndPan="magnify" viewBox="113.0 1.75 163.5 224.5" preserveAspectRatio="xMidYMid meet" version="1.0"><defs><clipPath id="4354c5a816"><path d="M 84 1 L 207.996094 1 L 207.996094 170 L 84 170 Z M 84 1 " clip-rule="nonzero"/></clipPath><clipPath id="5eee05402c"><path d="M 0.234375 41.246094 L 108.910156 41.246094 L 108.910156 149.917969 L 0.234375 149.917969 Z M 0.234375 41.246094 " clip-rule="nonzero"/></clipPath><clipPath id="ea8234fbc3"><path d="M 54.574219 41.246094 C 24.5625 41.246094 0.234375 65.574219 0.234375 95.582031 C 0.234375 125.589844 24.5625 149.917969 54.574219 149.917969 C 84.582031 149.917969 108.910156 125.589844 108.910156 95.582031 C 108.910156 65.574219 84.582031 41.246094 54.574219 41.246094 Z M 54.574219 41.246094 " clip-rule="nonzero"/></clipPath><clipPath id="53edc7e6c7"><path d="M 0.234375 0.246094 L 108.910156 0.246094 L 108.910156 108.917969 L 0.234375 108.917969 Z M 0.234375 0.246094 " clip-rule="nonzero"/></clipPath><clipPath id="ac3337245c"><path d="M 54.574219 0.246094 C 24.5625 0.246094 0.234375 24.574219 0.234375 54.582031 C 0.234375 84.589844 24.5625 108.917969 54.574219 108.917969 C 84.582031 108.917969 108.910156 84.589844 108.910156 54.582031 C 108.910156 24.574219 84.582031 0.246094 54.574219 0.246094 Z M 54.574219 0.246094 " clip-rule="nonzero"/></clipPath><clipPath id="a3afb2ec05"></clipPath></defs><g clip-path="url(#4354c5a816)"><path fill="#C41230" d="M 140.648438 67.027344 C 140.648438 67.027344 137.476562 70.644531 137.421875 72.921875 C 137.421875 72.921875 137.3125 64.582031 135.699219 62.410156 C 135.699219 62.410156 138.515625 63.71875 140.371094 63.703125 C 140.464844 63.703125 140.558594 63.699219 140.648438 63.691406 C 140.648438 63.691406 140.371094 66.082031 140.648438 67.027344 Z M 206.445312 160.300781 C 205.109375 158.132812 199.9375 156.796875 197.4375 155.960938 C 194.933594 155.128906 191.59375 149.289062 191.59375 149.289062 L 188.757812 128.597656 C 188.757812 128.597656 185.921875 100.566406 180.75 97.730469 C 175.578125 94.894531 157.722656 101.902344 157.722656 101.902344 C 157.890625 98.230469 154.054688 98.898438 154.054688 98.898438 C 157.890625 94.726562 151.882812 88.441406 151.882812 88.441406 C 151.882812 88.441406 155.722656 86.382812 156.390625 76.371094 C 157.054688 66.359375 148.269531 63.746094 148.269531 63.746094 C 151.941406 63.191406 151.828125 61.855469 150.382812 54.070312 C 148.9375 46.28125 138.925781 42.722656 138.925781 42.722656 C 138.925781 42.722656 140.480469 31.710938 140.480469 30.710938 C 140.480469 29.707031 131.804688 21.03125 123.574219 14.355469 C 115.34375 7.683594 110.894531 7.460938 110.894531 7.460938 L 112.894531 9.574219 C 112.894531 9.574219 119.902344 13.355469 123.238281 16.46875 C 126.578125 19.585938 138.144531 30.597656 138.144531 30.597656 L 136.367188 42.277344 L 134.140625 42.167969 C 134.476562 34.714844 125.910156 24.480469 125.019531 23.253906 C 124.128906 22.03125 123.128906 22.8125 123.128906 22.8125 C 119.070312 17.472656 115.625 13.40625 112.691406 10.328125 C 103.886719 1.105469 99.679688 0.804688 97.238281 1.871094 C 93.984375 3.289062 98.324219 5.125 98.324219 5.125 C 103.886719 0.0078125 122.101562 24.230469 122.101562 24.230469 C 122.101562 24.230469 120.179688 26.316406 122.765625 26.566406 C 125.355469 26.816406 130.527344 34.992188 131.777344 36.660156 C 133.03125 38.328125 132.695312 42.167969 132.695312 42.167969 C 123.019531 42 125.355469 45.003906 125.355469 45.003906 C 116.261719 42.75 117.761719 49.175781 117.761719 49.175781 C 118.929688 48.257812 120.847656 49.175781 120.847656 49.175781 C 119.792969 49.617188 119.792969 52.066406 119.792969 52.066406 C 119.792969 52.066406 116.789062 49.394531 115.339844 48.507812 C 113.890625 47.617188 105.554688 46.726562 104.773438 46.726562 C 103.996094 46.726562 102.214844 50.175781 102.214844 50.175781 C 102.214844 50.175781 104.105469 48.617188 105.664062 48.394531 C 107.222656 48.171875 114.007812 50.507812 114.007812 50.507812 C 114.007812 50.507812 121.238281 56.183594 123.128906 57.738281 C 125.019531 59.296875 131.804688 60.855469 131.804688 60.855469 C 131.804688 60.855469 133.03125 65.636719 131.027344 73.3125 C 129.023438 80.988281 128.46875 81.320312 127.023438 80.429688 C 125.578125 79.542969 124.6875 62.96875 122.460938 59.296875 C 120.238281 55.625 111.226562 54.179688 108.445312 52.957031 C 105.664062 51.734375 99.4375 50.0625 99.4375 50.0625 C 96.042969 47.226562 91.59375 47.726562 87.53125 48.339844 C 83.472656 48.953125 85.140625 52.234375 85.140625 52.234375 C 85.140625 52.234375 84.53125 50.898438 87.421875 50.175781 C 90.3125 49.453125 95.820312 48.839844 98.992188 53.179688 C 102.160156 57.515625 117.589844 59.019531 117.589844 59.019531 C 117.589844 59.019531 121.847656 61.855469 120.015625 70.699219 C 118.179688 79.542969 124.519531 84.214844 126.855469 86.214844 C 128.800781 87.882812 129.703125 86.542969 129.953125 86.046875 C 129.886719 86.316406 130 86.855469 131.695312 87.21875 C 134.03125 87.71875 141.457031 81.792969 141.457031 81.792969 C 141.457031 81.792969 141.457031 81.792969 141.457031 82.210938 C 141.457031 82.628906 143.375 83.714844 143.375 83.714844 C 139.203125 86.882812 139.035156 92.054688 139.035156 92.054688 C 129.691406 94.390625 133.195312 99.566406 133.195312 99.566406 C 133.195312 99.566406 128.023438 104.402344 123.019531 109.074219 C 118.011719 113.746094 120.179688 115.917969 120.179688 115.917969 C 120.179688 115.917969 108.167969 126.261719 103.996094 129.597656 C 99.824219 132.9375 101.660156 133.101562 101.660156 133.101562 C 99.992188 135.105469 93.984375 156.128906 93.152344 158.132812 C 92.316406 160.132812 89.144531 162.46875 89.3125 163.304688 C 89.480469 164.136719 89.3125 166.308594 89.3125 166.308594 L 94.652344 159.964844 L 102.496094 135.070312 C 102.496094 135.070312 120.015625 118.503906 121.597656 117.667969 C 123.183594 116.835938 131.109375 104.152344 131.109375 104.152344 C 132.195312 103.570312 134.363281 101.316406 134.363281 101.316406 C 134.363281 101.316406 135.78125 100.734375 136.03125 100.816406 C 136.28125 100.898438 137.535156 100.066406 137.535156 100.816406 C 137.535156 101.566406 135.617188 101.734375 134.78125 103.234375 C 133.945312 104.738281 134.613281 110.242188 136.617188 110.078125 C 138.617188 109.910156 142.875 110.492188 142.875 110.492188 C 143.125 112.414062 145.878906 113.582031 145.878906 113.582031 C 145.210938 114.914062 144.710938 120.921875 144.710938 120.921875 C 144.710938 120.921875 131.695312 131.265625 129.691406 132.101562 C 127.691406 132.9375 129.691406 134.605469 129.691406 134.605469 C 129.691406 134.605469 117.34375 151.792969 115.675781 154.460938 C 114.007812 157.128906 114.007812 162.46875 114.007812 163.804688 C 114.007812 165.136719 109.835938 164.636719 109.667969 166.640625 C 109.503906 168.644531 109.667969 169.644531 109.667969 169.644531 L 109.835938 168.476562 C 110.003906 167.308594 116.34375 165.640625 116.34375 164.304688 C 116.34375 162.96875 116.34375 160.132812 117.179688 157.632812 C 118.011719 155.128906 131.582031 135.828125 131.582031 135.828125 C 132.472656 135.828125 144.820312 124.59375 144.820312 124.59375 C 143.375 132.492188 148.046875 140.722656 148.046875 140.722656 C 148.046875 140.722656 143.484375 155.851562 143.152344 157.519531 C 142.816406 159.1875 140.035156 158.1875 138.703125 158.742188 C 137.367188 159.296875 137.257812 161.96875 137.257812 161.96875 C 137.257812 161.96875 138.367188 161.1875 139.148438 160.1875 C 139.925781 159.1875 144.933594 159.410156 144.933594 159.410156 L 149.382812 143.949219 C 152.550781 151.457031 156.554688 153.292969 163.230469 152.792969 C 169.902344 152.292969 176.078125 145.949219 177.746094 130.433594 C 179.414062 114.914062 165.230469 105.238281 165.230469 105.238281 C 165.230469 105.238281 178.414062 100.230469 180.417969 100.898438 C 182.417969 101.566406 184.253906 124.425781 184.585938 126.09375 C 184.921875 127.761719 186.921875 129.097656 186.921875 129.097656 L 189.539062 150.734375 L 190.425781 150.621094 C 190.425781 152.625 196.433594 158.464844 198.9375 158.796875 C 201.441406 159.132812 203.609375 160.300781 205.109375 161.46875 C 206.613281 162.636719 207.28125 165.972656 207.28125 165.972656 C 207.28125 165.972656 207.78125 162.46875 206.445312 160.300781 " fill-opacity="1" fill-rule="nonzero"/></g><g clip-path="url(#5eee05402c)"><g clip-path="url(#ea8234fbc3)"><g transform="matrix(1, 0, 0, 1, 0, 41)"><g clip-path="url(#a3afb2ec05)"><g clip-path="url(#53edc7e6c7)"><g clip-path="url(#ac3337245c)"></g></g></g></g></g></g></svg>